<?xml version="1.0" standalone="no"?>
<!DOCTYPE svg PUBLIC "-//W3C//DTD SVG 20010904//EN"
 "http://www.w3.org/TR/2001/REC-SVG-20010904/DTD/svg10.dtd">
<svg version="1.0" xmlns="http://www.w3.org/2000/svg"
 width="500.000000pt" height="500.000000pt" viewBox="0 0 500.000000 500.000000"
 preserveAspectRatio="xMidYMid meet">

<g transform="translate(0.000000,500.000000) scale(0.100000,-0.100000)"
fill="#000000" stroke="none">
<path d="M3889 2861 c0 -3 0 -65 1 -137 2 -189 -45 -410 -114 -540 -37 -69
-37 -168 -1 -241 51 -102 171 -183 249 -169 45 9 152 93 274 217 119 121 136
155 129 257 -6 87 -38 175 -139 380 -68 139 -106 179 -191 206 -54 17 -206 36
-208 27z"/>
<path d="M1005 2830 c-88 -28 -125 -64 -183 -178 -141 -273 -180 -428 -132
-522 26 -51 197 -224 288 -293 56 -41 70 -47 113 -47 119 0 239 114 239 227 0
46 -8 69 -59 166 -33 61 -67 137 -75 167 -19 68 -53 278 -61 385 -4 44 -9 88
-11 98 -7 22 -42 21 -119 -3z"/>
<path d="M1883 2096 c-75 -24 -155 -68 -608 -336 -65 -39 -103 -55 -137 -58
-81 -8 -175 38 -282 138 l-49 45 8 -45 c20 -130 186 -549 241 -610 44 -48 151
-97 245 -111 l75 -12 22 -61 c35 -96 84 -179 120 -202 40 -27 112 -38 187 -29
68 9 86 -4 110 -76 20 -60 75 -109 146 -132 76 -25 163 -21 290 13 l37 10 -25
63 c-30 74 -40 169 -23 221 7 22 32 54 64 83 l53 46 -33 56 c-19 31 -37 63
-42 71 -7 12 -16 9 -48 -17 -32 -25 -296 -200 -341 -227 -32 -18 -1 12 168
164 137 123 179 166 173 179 -4 9 -9 42 -12 73 -4 49 0 67 22 113 15 30 46 71
69 90 l42 36 0 97 c1 114 19 164 85 236 l43 46 -34 -6 c-39 -7 -84 -34 -149
-89 l-45 -38 -6 49 c-3 27 -11 61 -17 76 -18 43 -93 119 -137 139 -48 22 -150
24 -212 5z m327 -325 c-23 -33 -168 -157 -275 -236 -125 -92 -465 -305 -465
-291 0 18 727 556 752 556 5 0 0 -13 -12 -29z"/>
<path d="M3043 2095 c-45 -19 -133 -103 -149 -142 -8 -18 -14 -53 -14 -78 l0
-45 -72 55 c-106 80 -159 90 -250 44 -124 -63 -176 -292 -84 -368 24 -20 20
-26 -18 -27 -71 -1 -166 -105 -166 -181 0 -70 22 -103 240 -364 123 -147 139
-172 54 -83 -38 40 -81 79 -97 89 -34 22 -78 15 -124 -21 -73 -56 -81 -125
-28 -232 43 -86 127 -167 183 -179 20 -4 76 -7 123 -7 83 -1 87 0 140 37 l56
38 100 -20 c122 -25 150 -26 225 -5 75 21 123 64 162 144 l31 65 115 5 c89 4
122 9 144 23 38 25 81 96 113 189 22 62 32 78 48 78 43 1 158 30 215 56 126
56 172 146 184 354 4 76 11 101 65 229 l60 144 -42 -40 c-60 -57 -161 -131
-201 -148 -44 -19 -97 -19 -139 -1 -18 7 -68 43 -112 80 -140 117 -424 280
-541 310 -76 20 -178 20 -221 1z m52 -391 c61 -45 146 -112 190 -149 109 -90
315 -284 315 -296 0 -11 -232 161 -380 282 -103 84 -314 294 -265 264 17 -10
80 -55 140 -101z m-420 -280 c44 -29 127 -92 185 -140 126 -103 392 -346 386
-352 -11 -11 -363 252 -464 347 -62 58 -139 130 -170 158 -69 64 -45 59 63
-13z"/>
</g>
</svg>
