<?xml version="1.0" encoding="UTF-8"?>
<svg width="730" height="388.75" fill-rule="evenodd" image-rendering="optimizeQuality" shape-rendering="geometricPrecision" text-rendering="geometricPrecision" viewBox="0 0 8268 11692" xmlns="http://www.w3.org/2000/svg">
 <g transform="matrix(2.7045 0 0 2.7065 -5362.8 -11718)">
  <path d="m2820 4399 1514 56c84-28 158-42 222-42 167 0 373 97 618 292 246 194 406 305 480 333 333 222 564 389 694 500s227 268 292 472c46 56 185 158 416 306 232 148 380 273 445 375 0 324-63 625-188 902-125 278-308 538-548 778-84 37-178 81-285 132-106 51-197 77-271 77h-83c-37-19-72-42-104-70-33-28-118-83-257-167-139-83-218-129-236-138-158 37-348 55-570 55-176 0-456-18-840-55s-627-56-729-56c-195-139-357-257-486-354-130-97-186-229-167-396 37-46 56-88 56-125 0-46-56-90-167-132s-178-99-202-174c-23-74-44-157-62-250-19-92-28-148-28-166 0-102 28-181 84-236-195-130-292-338-292-625 0-56 9-139 28-250 46-47 64-79 55-98l-55-27c-158 27-311 41-459 41-92 0-231-4-416-14-186-9-320-13-403-13-232 0-421 23-570 69-157 9-273 14-347 14-102 0-190-19-264-56-139-101-194-217-166-347 74-204 231-338 472-403 315-46 537-78 667-97 129-46 245-74 347-83s236-14 403-14c92 0 236 5 430 14 195 9 343 14 445 14 166 0 342-14 527-42zm1792 2028c18 120 81 224 187 312 107 88 234 174 382 257l-41 42c-102-9-192-46-271-111s-155-148-229-250h-70c-55 37-83 79-83 125 46 120 69 208 69 264-55 148-159 273-312 375s-303 199-451 291c-47 93-93 186-139 278l527 56c195 0 357 4 487 14 129 9 250 18 361 27 231 0 433-32 604-97s303-185 396-361c46-148 92-296 139-444 27 55 60 111 97 166 65 28 106 19 125-28 9 38 25 75 48 112 24 37 63 88 118 152l-55-27c-46-28-83-12-111 48s-67 155-118 285-169 194-354 194c138-157 243-275 312-354s104-160 104-243c-55-74-102-111-139-111 0 139-25 273-76 403-51 129-132 231-243 305 37 56 86 107 146 153s122 88 187 125c158 19 287-16 389-104s218-220 347-396l-222-180c93 27 185 55 278 83-259-232-519-463-778-695 19-18 12-53-21-104-32-51-34-90-7-118 269 93 491 232 667 417-65-28-162-81-292-160-129-79-227-127-291-146 74 93 139 165 194 216 56 51 241 201 556 451 37 37 74 39 111 7s60-72 69-118l-347-250c28 0 86 30 174 90s159 90 215 90c55-64 92-155 111-270 18-116 28-225 28-327-65-18-174-83-327-194-152-111-252-171-298-181l486 375c-83 0-185-48-306-146-120-97-194-155-222-173-46 55-86 104-118 146-32 41-67 62-104 62-28-28-19-69 28-125 46-55 69-97 69-125-74 139-238 236-493 292-255 55-391 88-410 97l-583-125v97c-167-148-333-296-500-444zm-3722-1847c-65 18-102 76-111 173-10 97-24 160-42 188 37 18 62 62 76 132 14 69 30 113 49 132 56-10 125-10 208 0 84 9 181 18 292 27 83 0 167-14 250-41-28-74-42-153-42-236 0-74 5-149 14-223s19-148 28-222c-37-9-102-14-194-14-65 0-153 12-264 35s-199 39-264 49zm2666-84 14 139c-18-28-41-44-69-48-28-5-46 11-56 48l-69-125c-19 0-37 28-56 83-27-46-60-69-97-69-148 65-259 102-333 111-84-9-137 37-160 139s-62 162-118 181c-130 18-236 9-319-28-84-37-167-107-250-209-38 38-47 86-28 146 18 60 28 109 28 146 55 130 145 220 270 271s280 76 466 76h347c157 0 264-18 319-55 56-37 93-97 111-181-9 74-13 144-13 209 129 18 236-5 319-70l-83 139c83 28 194 42 333 42 176 0 306-42 389-125 83-10 143-14 180-14 56 0 98 18 125 55-250 47-444 125-583 236l667 875c203 75 382 135 534 181 153 46 290 69 410 69 213 0 380-74 500-222 56-102 93-180 111-236 19-55 28-129 28-222 0-56-35-151-104-285-70-134-306-331-708-590-403-259-651-435-743-528-38 19-79 14-125-14-47-28-98-65-153-111-139 28-278 42-417 42-120 0-245-7-375-21s-227-25-292-35zm-2847 139c-259 0-467 19-625 56-157 37-296 115-416 236-19 55-28 106-28 153 0 111 37 180 111 208 65 9 127 14 187 14h188c92 0 190-5 292-14 101-9 199-28 291-56v-597zm1417 28c74 204 217 273 430 208-9-92-62-146-159-159-98-14-188-31-271-49zm458 83c19 47 37 70 56 70v-56l-56-14zm528 750c-102 0-234-11-396-34-162-24-252-35-271-35-83 0-162 14-236 41 0 223 9 382 28 480 18 97 93 173 222 229 139 28 313 46 521 55 208 10 326 14 354 14h417c139 0 282-4 430-14l70-69c-74-111-111-213-111-306 0-46 14-97 41-152-37-74-132-125-284-153-153-28-257-60-313-97l-472 41zm1208 417c-18 55-27 97-27 125 0 46 13 83 41 111 19 19 44 21 77 7 32-14 48-35 48-63l-139-180zm-41 403c18 83 37 159 55 229 19 69 60 104 125 104 0-185-9-287-28-306-83-27-134-37-152-27zm-1778 41c-83 47-125 111-125 195 37 120 60 213 69 278 28 55 67 99 118 132 51 32 114 62 188 90 546-56 1065-158 1555-306-27-55-55-118-83-187-28-70-28-141 0-216-74 10-157 14-250 14h-646c-143 0-289-4-437-14-167 0-297 5-389 14zm4361 28c65 65 150 141 257 229 106 88 197 142 271 160-74-83-167-160-278-229-111-70-194-123-250-160zm-5125-1875c0 74-12 185-35 333-23 149-34 246-34 292 18 46 74 70 166 70 93-10 153-14 181-14l-84-167c-27-56-41-120-41-194 0-139 51-237 153-292 64 0 166 18 305 55 139 38 245 56 320 56 129 0 231-51 305-153-213 0-421 3-625 7-204 5-407 7-611 7zm2486 2417c46 46 93 88 139 125l-14-97c0-56-23-84-69-84-47 0-65 19-56 56zm-139-14c-148 55-363 109-646 160-282 51-479 95-590 132-28 46-42 92-42 138 0 56 10 112 28 167 19 56 37 111 56 167 176 120 310 208 403 264 92 55 180 88 263 97 74-120 112-185 112-195-84 38-167 75-250 112 18-37 16-61-7-70-24-9-44-23-63-42 185-92 380-194 583-305 204-111 366-236 487-375-84 37-156 25-216-35s-99-132-118-215zm2403 361-42-69 42 69zm236 194 42 42-42-42zm-2750-347-14 222-28-291 42 69zm-55-722c37 0 69 46 97 139l-84 250c10-83 5-213-13-389zm-28-736c28 9 55 51 83 125-18 130-55 231-111 305-19-46-16-120 7-222s30-171 21-208zm2750 1986 55 42-125-84 70 42z" fill="#1f1a17"/>
 </g>
</svg>
